<svg width="25" height="23" viewBox="0 0 25 23" fill="none" xmlns="http://www.w3.org/2000/svg">
<path d="M12.1882 22.5C11.8118 22.4995 11.4443 22.3858 11.1335 22.1736C6.52858 19.0477 4.53464 16.9043 3.43483 15.5643C1.09108 12.7078 -0.03099 9.7752 0.000650635 6.59941C0.0375647 2.96016 2.95729 0 6.50924 0C9.09206 0 10.8809 1.45488 11.9227 2.6666C11.9557 2.7046 11.9965 2.73507 12.0423 2.75595C12.0881 2.77683 12.1378 2.78764 12.1882 2.78764C12.2385 2.78764 12.2882 2.77683 12.334 2.75595C12.3798 2.73507 12.4206 2.7046 12.4536 2.6666C13.4954 1.45371 15.2842 0 17.8671 0C21.419 0 24.3387 2.96016 24.3757 6.6C24.4073 9.77637 23.284 12.709 20.9415 15.5648C19.8417 16.9049 17.8477 19.0482 13.2428 22.1742C12.9319 22.3862 12.5644 22.4997 12.1882 22.5Z" fill="#0E1162"/>
</svg>
